<?xml version="1.0" standalone="no"?><!DOCTYPE svg PUBLIC "-//W3C//DTD SVG 1.1//EN" "http://www.w3.org/Graphics/SVG/1.1/DTD/svg11.dtd"><svg t="1697512831112" class="icon" viewBox="0 0 1024 1024" version="1.1" xmlns="http://www.w3.org/2000/svg" p-id="10626" width="64" height="64" xmlns:xlink="http://www.w3.org/1999/xlink"><path d="M595.085121 0v156.486647c0 73.553348 58.624694 133.631273 131.533996 135.827635l4.128499 0.066056H883.5021v226.737195a270.614888 270.614888 0 0 0-98.75371-18.528706c-75.33686 0-143.539672 30.716037-192.900012 80.406657A274.561734 274.561734 0 0 0 511.93714 775.117533a274.561734 274.561734 0 0 0 157.246291 248.783383L107.344185 1023.867888a82.603019 82.603019 0 0 1-82.487421-79.069023L24.774194 941.198813V82.735131A82.669075 82.669075 0 0 1 103.760647 0.08257L107.344185 0h487.740936zM784.74839 559.411689c118.388853 0 214.351697 96.573861 214.351697 215.722358C999.100087 894.249516 903.137243 990.839892 784.74839 990.839892c-118.388853 0-214.351697-96.573861-214.351696-215.722359 0-119.131983 95.962844-215.705844 214.351696-215.705844z m0.33028 82.569991v29.361889c-63.843117 0-115.597987 52.58057-115.597987 117.414527 0 64.866985 51.75487 117.447555 115.597987 117.447555s115.597987-52.58057 115.597988-117.431041h-38.527158c0 43.233647-34.514256 78.276351-77.07083 78.276351s-77.07083-35.042704-77.070829-78.276351c0-43.233647 34.514256-78.276351 77.070829-78.276352V739.827119l64.156883-48.930977-64.156883-48.930976z m-409.547155 38.196878H141.693301v58.822861h233.838214v-58.839375z m145.983744-163.092247h-379.821958v58.839376h379.821958v-58.839376z m181.65398-165.139981h-561.475938v58.839375h561.475938v-58.839375zM652.306125 0l231.195975 231.195975h-150.079216c-43.596955 0-79.151593-33.853696-81.034189-76.344214L652.306125 151.268223V0z" fill="#046BDE" p-id="10627"></path></svg>